<svg width="128" height="128" viewBox="0 0 128 128" fill="none" xmlns="http://www.w3.org/2000/svg">
<rect width="128" height="128" rx="64" fill="black"/>
<path d="M36.7784 67.7265C36.3709 68.1632 36.2612 68.8 36.4993 69.3478C36.7373 69.8956 37.2777 70.25 37.875 70.25H62.0361L55.4279 94.4803C55.2464 95.1458 55.5421 95.8493 56.1446 96.1851C56.7471 96.521 57.5009 96.4027 57.9716 95.8985L91.2216 60.2735C91.6291 59.8368 91.7388 59.2 91.5007 58.6522C91.2627 58.1044 90.7223 57.75 90.125 57.75H65.9639L72.5721 33.5197C72.7536 32.8542 72.4579 32.1507 71.8554 31.8149C71.2529 31.479 70.4991 31.5973 70.0284 32.1015L36.7784 67.7265Z" fill="#FFFBFE" stroke="#FFFBFE" stroke-width="3" stroke-linecap="round" stroke-linejoin="round"/>
</svg>
