<svg width="513" height="257" viewBox="0 0 513 257" fill="none" xmlns="http://www.w3.org/2000/svg">
<path d="M171.357 157.744C175.684 158.822 180.07 159.868 184.514 160.881C188.958 161.895 193.459 162.875 198.013 163.82C202.568 164.765 207.175 165.676 211.834 166.55C216.492 167.423 221.201 168.261 225.956 169.06C224.325 171.064 223.472 173.019 223.105 175.596L215.25 238.721C214.974 241.319 215.315 243.478 216.391 245.939C211.633 245.14 206.922 244.303 202.262 243.43C197.602 242.557 192.991 241.647 188.435 240.702C183.878 239.758 179.375 238.779 174.93 237.767C170.484 236.755 166.095 235.71 161.766 234.634L162.163 231.454C165.586 232.306 169.047 233.137 172.544 233.948C176.041 234.76 179.574 235.55 183.141 236.32C186.709 237.09 190.31 237.838 193.945 238.564C197.58 239.29 201.247 239.995 204.946 240.676L209.207 206.442C207.009 206.037 204.822 205.624 202.647 205.203C200.471 204.782 198.307 204.353 196.155 203.916C194.002 203.479 191.861 203.035 189.733 202.583C187.604 202.13 185.487 201.671 183.383 201.204L183.779 198.026C185.883 198.493 188 198.953 190.129 199.405C192.257 199.857 194.398 200.301 196.551 200.738C198.703 201.175 200.867 201.604 203.043 202.025C205.218 202.446 207.405 202.859 209.603 203.264L213.725 170.151C210.028 169.47 206.362 168.765 202.729 168.038C199.096 167.311 195.496 166.562 191.93 165.792C188.364 165.022 184.833 164.23 181.337 163.418C177.842 162.606 174.383 161.773 170.961 160.921L171.357 157.744" fill="#FFFBFE" fill-opacity="0.5"/>
<path d="M111.148 139.35C112.034 139.678 112.923 140.006 113.818 140.331C114.712 140.657 115.611 140.982 116.515 141.305C117.418 141.628 118.326 141.949 119.238 142.269C120.151 142.59 121.068 142.908 121.989 143.226C120.575 145.25 119.985 146.785 119.56 149.543L112.009 209.929C124.591 192.819 138.359 176.682 150.355 159.092C150.966 158.196 152.397 156.099 151.251 152.39C151.545 152.474 151.839 152.557 152.133 152.64C152.428 152.724 152.722 152.807 153.017 152.889C153.312 152.972 153.607 153.055 153.903 153.138C154.199 153.22 154.494 153.302 154.791 153.385C155.364 153.544 155.939 153.703 156.514 153.861C157.09 154.019 157.667 154.176 158.245 154.333C158.824 154.49 159.403 154.647 159.984 154.803C160.564 154.958 161.146 155.114 161.729 155.268C161.877 155.308 162.025 155.347 162.174 155.386C162.322 155.426 162.471 155.465 162.619 155.504C162.768 155.543 162.916 155.582 163.065 155.621C163.213 155.66 163.362 155.7 163.511 155.739C161.868 157.765 161.373 158.376 161.102 160.294L152.992 225.28C152.813 227.218 152.738 229.38 153.918 232.615C152.881 232.343 151.847 232.07 150.817 231.795C149.787 231.519 148.761 231.243 147.739 230.964C146.717 230.685 145.699 230.405 144.684 230.123C143.67 229.841 142.659 229.557 141.652 229.272C143.185 227.189 143.815 225.64 144.247 222.897L151.786 162.507C124.663 197.677 111.526 216.882 112.374 220.123C112.105 220.031 111.836 219.938 111.567 219.845C111.299 219.752 111.03 219.659 110.763 219.566C110.495 219.473 110.227 219.38 109.96 219.287C109.693 219.194 109.427 219.1 109.16 219.007C108.645 218.826 108.131 218.644 107.619 218.463C107.107 218.281 106.596 218.099 106.086 217.916C105.577 217.733 105.069 217.55 104.562 217.366C104.056 217.183 103.551 216.999 103.047 216.814C102.92 216.768 102.793 216.721 102.666 216.675C102.54 216.628 102.413 216.582 102.286 216.535C102.16 216.488 102.033 216.442 101.907 216.395C101.78 216.348 101.654 216.302 101.528 216.255C103.09 214.122 103.415 213.679 103.661 211.909L111.808 146.772C111.997 144.831 112.102 142.659 111.148 139.35" fill="#FFFBFE" fill-opacity="0.5"/>
<path d="M63.1787 117.819C65.9604 119.348 68.8366 120.864 71.8038 122.364C74.7708 123.864 77.8287 125.349 80.9743 126.815C84.1196 128.282 87.3525 129.732 90.6695 131.162C93.9863 132.592 97.3872 134.003 100.869 135.394C99.5506 137.38 98.9655 138.968 98.5501 141.687L90.6435 204.855C90.452 206.806 90.3403 208.991 91.2404 212.323C87.7558 210.936 84.3519 209.527 81.0324 208.1C77.7125 206.672 74.4768 205.226 71.3289 203.762C68.1806 202.298 65.12 200.817 62.1506 199.32C59.1808 197.823 56.3021 196.31 53.5181 194.784L53.9171 191.601C56.1198 192.809 58.3816 194.008 60.7009 195.197C63.02 196.387 65.3966 197.567 67.829 198.736C70.2612 199.906 72.7491 201.065 75.2912 202.213C77.833 203.361 80.429 204.497 83.0773 205.622L87.3669 171.363C85.7929 170.693 84.2373 170.02 82.7007 169.342C81.164 168.665 79.6461 167.983 78.1474 167.297C76.6488 166.612 75.1692 165.922 73.7093 165.229C72.2494 164.535 70.809 163.838 69.3886 163.138L69.7872 159.957C71.2076 160.658 72.6479 161.355 74.1079 162.048C75.5677 162.741 77.0472 163.431 78.5458 164.117C80.0445 164.803 81.5623 165.484 83.099 166.162C84.6357 166.84 86.1911 167.513 87.7651 168.182L91.9143 135.045C89.2683 133.918 86.6747 132.78 84.1351 131.63C81.5953 130.48 79.1096 129.319 76.6795 128.147C74.2493 126.976 71.8748 125.794 69.5577 124.602C67.2405 123.41 64.9806 122.209 62.7799 120.999L63.1787 117.819" fill="#FFFBFE" fill-opacity="0.5"/>
<path d="M47.0772 147.41L51.2492 114.156C50.1504 113.467 49.0708 112.777 48.0108 112.084C46.9507 111.391 45.9101 110.696 44.8894 110C43.8685 109.303 42.8675 108.604 41.8866 107.904C40.9057 107.204 39.9449 106.502 39.0044 105.798C31.1655 100.811 27.4405 117.93 30.1613 130.045C31.5419 136.193 33.7618 138.13 34.8287 139.061C35.7694 139.764 36.7306 140.466 37.7118 141.165C38.693 141.865 39.6943 142.562 40.7155 143.258C41.7365 143.954 42.7774 144.648 43.8378 145.34C44.8982 146.032 45.9781 146.722 47.0772 147.41M36.4933 100.381C37.9826 101.555 39.529 102.725 41.1312 103.89C42.7333 105.055 44.391 106.216 46.1032 107.371C47.8153 108.526 49.5817 109.676 51.4012 110.82C53.2206 111.964 55.093 113.101 57.0171 114.232C57.1147 114.29 57.2125 114.347 57.3104 114.405C57.4083 114.462 57.5064 114.519 57.6045 114.577C57.7027 114.634 57.801 114.691 57.8995 114.748C57.9979 114.806 58.0965 114.863 58.1952 114.92C57.0582 116.85 56.5603 118.371 56.1459 121.178L48.2339 184.259C47.9281 186.929 48.0199 189.214 48.5407 191.898C47.8902 191.522 47.2454 191.145 46.6064 190.767C45.9674 190.389 45.3341 190.011 44.7068 189.632C44.0794 189.253 43.4578 188.873 42.8422 188.493C42.2266 188.112 41.6168 187.731 41.013 187.349C41.6729 186.111 42.4028 184.437 42.8121 181.406L46.6799 150.576C46.2045 150.279 45.7327 149.981 45.2645 149.683C44.7963 149.385 44.3317 149.086 43.8708 148.787C43.4098 148.488 42.9525 148.189 42.4989 147.889C42.0453 147.589 41.5953 147.289 41.149 146.988C39.6879 153.565 37.1702 156.179 30.7879 157.745C25.9245 158.939 23.9075 161.536 22.2759 173.749C21.9493 173.467 21.626 173.186 21.3061 172.904C20.9862 172.623 20.6696 172.341 20.3564 172.059C20.0432 171.777 19.7333 171.495 19.4269 171.212C19.1204 170.93 18.8174 170.648 18.5177 170.365C20.0369 160.27 23.0517 156.245 30.4653 154.415C36.1362 153.016 38.2516 151.021 39.5194 145.878C38.838 145.408 38.1657 144.938 37.5025 144.467C36.8393 143.995 36.1852 143.523 35.5403 143.05C34.8954 142.577 34.2597 142.103 33.6333 141.629C33.007 141.155 32.3899 140.68 31.7822 140.204C21.0917 130.539 25.2396 98.7681 33.6568 99.1824C34.2354 99.2109 35.1971 99.442 36.4932 100.381" fill="#FFFBFE" fill-opacity="0.5"/>
<path d="M14.4989 73.9786C27.0609 100.6 19.4297 157.416 7.32106 155.36C3.4988 154.711 1.7939 146.647 2.25374 131.392C2.70718 130.039 3.29597 128.229 3.77686 126.886C1.37127 156.73 8.25226 151.611 9.04479 150.929C19.2279 142.167 21.9181 77.9618 12.208 75.4348C11.2541 76.164 10.5648 76.6909 9.03791 85.0395C9.18622 78.7367 9.35646 75.3017 9.54861 74.7345C10.9736 70.5282 12.5493 71.389 13.3617 72.2765C13.7585 72.7099 14.2748 73.5484 14.4989 73.9786" fill="#FFFBFE"/>
<path d="M2.85048 112.939C1.11678 127.061 0.216999 134.356 0.15114 134.825C0.126171 135.215 0.109408 135.606 0.100807 135.997C0.0922052 136.388 0.0917568 136.78 0.0994162 137.172C0.107076 137.564 0.122843 137.956 0.146664 138.349C0.170486 138.742 0.202354 139.135 0.242231 139.529L0.289981 138.968C0.492655 136.707 3.40029 113.255 9.0129 68.6126C9.37362 65.7993 9.59901 64.2886 9.94051 62.3953C9.90084 62.0003 9.86918 61.6057 9.84556 61.2115C9.82195 60.8173 9.80638 60.4235 9.79892 60.0301C9.79145 59.6367 9.79209 59.2437 9.80088 58.8511C9.80968 58.4586 9.82662 58.0665 9.85177 57.6749C9.49529 60.7698 7.13413 79.6788 2.76828 114.402C3.12662 110.948 3.21565 110.149 3.56227 107.278L2.85047 112.939" fill="#FFFBFE"/>
<path d="M506.935 137.233C506.905 138.803 504.082 162.45 498.466 208.174C498.225 210.049 498.109 210.607 497.468 213.703C497.699 213.348 497.732 213.297 497.764 213.246C497.797 213.196 497.829 213.145 497.861 213.094C497.988 212.893 498.112 212.692 498.234 212.491C498.355 212.289 498.475 212.087 498.591 211.884C498.708 211.681 498.822 211.478 498.934 211.273C499.046 211.069 499.156 210.865 499.263 210.659C499.48 210.234 499.534 210.127 499.586 210.021C499.793 209.593 499.844 209.486 499.894 209.378C499.967 207.969 500.111 206.223 500.67 203.014C504.156 183.018 506.069 170.32 508.541 150.755L509.322 144.401C507.446 159.188 505.241 175.686 500.78 200.329L508.22 139.756C508.566 137.029 508.845 135.203 509.368 132.24C509.197 132.609 509.018 132.977 508.831 133.342C508.644 133.708 508.449 134.072 508.247 134.433C508.044 134.795 507.834 135.155 507.617 135.513C507.399 135.871 507.174 136.227 506.941 136.581C506.939 136.776 506.939 137.037 506.935 137.233" fill="#FFFBFE" fill-opacity="0.5"/>
<path d="M483.814 155.685C485.932 154.575 487.943 153.429 489.843 152.248C491.742 151.067 493.531 149.85 495.205 148.599C496.878 147.348 498.437 146.062 499.876 144.743C501.315 143.423 502.635 142.069 503.831 140.681C503.205 143.359 502.799 145.595 502.474 148.158L494.695 211.482C494.385 214.182 494.3 215.777 494.357 217.804C493.161 219.186 491.841 220.535 490.402 221.849C488.963 223.164 487.405 224.444 485.731 225.69C484.057 226.936 482.269 228.147 480.369 229.324C478.469 230.499 476.458 231.64 474.34 232.745L474.731 229.559C476.407 228.684 478.016 227.788 479.555 226.869C481.095 225.95 482.565 225.009 483.965 224.046C485.364 223.083 486.693 222.099 487.948 221.093C489.204 220.086 490.386 219.059 491.494 218.01L495.712 183.674C495.054 184.299 494.368 184.916 493.657 185.526C492.946 186.136 492.209 186.738 491.445 187.333C490.682 187.928 489.894 188.515 489.08 189.094C488.266 189.673 487.426 190.245 486.562 190.809L486.954 187.623C487.818 187.059 488.657 186.487 489.471 185.908C490.285 185.328 491.074 184.741 491.837 184.146C492.6 183.552 493.338 182.949 494.049 182.339C494.76 181.729 495.445 181.112 496.104 180.487L500.184 147.275C499.077 148.328 497.894 149.359 496.639 150.369C495.383 151.379 494.055 152.368 492.655 153.334C491.256 154.301 489.785 155.245 488.246 156.168C486.707 157.09 485.098 157.991 483.423 158.868L483.814 155.685" fill="#FFFBFE" fill-opacity="0.5"/>
<path d="M469.422 196.682L473.515 163.406C472.452 163.847 471.368 164.281 470.266 164.708C469.163 165.134 468.042 165.554 466.901 165.966C465.761 166.379 464.602 166.784 463.424 167.182C462.246 167.58 461.05 167.971 459.836 168.354C446.978 173.392 443.159 197.846 451.923 201.519C453.434 202.153 454.555 201.894 455.742 201.62C456.956 201.237 458.152 200.847 459.33 200.45C460.508 200.053 461.667 199.649 462.808 199.237C463.948 198.826 465.07 198.407 466.172 197.981C467.275 197.555 468.358 197.122 469.422 196.682ZM456.32 166.362C458.399 165.751 460.429 165.12 462.409 164.469C464.388 163.818 466.317 163.146 468.194 162.455C470.071 161.764 471.896 161.053 473.667 160.322C475.438 159.591 477.155 158.841 478.818 158.071C478.902 158.032 478.986 157.993 479.07 157.954C479.154 157.914 479.238 157.875 479.322 157.836C479.406 157.797 479.489 157.757 479.573 157.718C479.656 157.679 479.74 157.639 479.823 157.6C478.862 160.191 478.306 162.411 477.963 165.023L470.198 228.162C469.904 230.726 469.951 232.728 470.348 234.651C469.8 234.91 469.247 235.166 468.687 235.42C468.127 235.674 467.561 235.926 466.989 236.176C466.417 236.426 465.839 236.674 465.254 236.919C464.67 237.164 464.08 237.408 463.484 237.649C463.974 236.313 464.795 234.079 465.238 230.701L469.032 199.851C468.572 200.041 468.108 200.23 467.641 200.418C467.174 200.606 466.703 200.792 466.228 200.977C465.753 201.162 465.275 201.346 464.793 201.528C464.311 201.71 463.826 201.891 463.337 202.071C461.979 208.595 459.567 213.965 451.258 222.105C444.702 228.53 441.698 233.174 440.069 245.31C439.548 245.444 439.025 245.578 438.499 245.71C437.973 245.843 437.444 245.974 436.913 246.104C436.382 246.234 435.848 246.362 435.311 246.49C434.775 246.618 434.235 246.744 433.693 246.869C435.216 237.421 439.393 230.54 449.657 220.573C456.554 213.876 459.903 209.71 461.517 202.728C460.742 203.002 459.958 203.274 459.165 203.542C458.373 203.811 457.572 204.075 456.763 204.337C455.954 204.599 455.137 204.857 454.311 205.112C453.485 205.367 452.652 205.619 451.81 205.867C440.319 208.396 436.849 189.859 446.097 175.351C448.16 172.115 451.609 167.928 456.32 166.362" fill="#FFFBFE" fill-opacity="0.5"/>
<path d="M407.121 174.219C439.821 172.249 438.409 218.199 417.941 241.227C406.569 254.02 388.346 258.947 375.518 243.61C377.576 241.388 380.327 238.432 382.372 236.197C385.778 257.318 407.003 251.735 416.48 236.719C428.134 218.256 432.861 172.331 404.927 177.74C393.244 180.002 389.238 190.125 387.527 194.447C385.989 192.486 383.94 189.868 382.397 187.911C392.844 177.146 402.372 174.712 407.121 174.219" fill="#FFFBFE"/>
<path d="M315.38 178.74C316.479 178.791 317.577 178.839 318.671 178.885C319.766 178.931 320.858 178.974 321.947 179.014C323.037 179.055 324.124 179.092 325.208 179.127C326.292 179.162 327.374 179.194 328.453 179.224C326.912 181.443 326.101 183.483 325.74 186.046L324.264 197.966C323.494 206.333 324.765 210.694 329.498 215.913C337.469 224.705 349.547 226.885 357.9 235.062L363.959 186.05C364.24 183.463 363.978 181.421 363.084 179.224C364.096 179.195 365.104 179.163 366.109 179.129C367.114 179.095 368.115 179.058 369.113 179.018C370.111 178.979 371.106 178.937 372.096 178.892C373.087 178.848 374.075 178.801 375.058 178.751C373.628 181.065 372.867 183.147 372.511 185.712L364.64 249.411C364.337 252.207 364.828 253.818 365.358 255.229L365.554 255.675C364.57 255.724 363.582 255.77 362.591 255.814C361.6 255.858 360.605 255.9 359.607 255.938C358.608 255.977 357.607 256.013 356.601 256.047C355.596 256.081 354.588 256.112 353.576 256.14C357.775 249.405 355.435 240.954 351.252 235.567C343.569 225.672 330.972 223.563 322.083 215.579L317.853 249.74C317.555 252.526 318.114 254.19 318.712 255.656L318.931 256.122C317.852 256.092 316.77 256.059 315.685 256.024C314.6 255.988 313.513 255.95 312.423 255.91C311.333 255.869 310.241 255.825 309.146 255.779C308.05 255.733 306.953 255.684 305.853 255.632C306.838 254.274 308.065 252.584 308.514 249.39L316.404 185.7C316.682 183.112 316.375 181.03 315.38 178.74" fill="#FFFBFE"/>
<path d="M239.864 174.149C247.404 186.491 250.916 192.234 263.705 213.084L259.753 244.915C259.302 247.692 258.547 249.383 256.761 251.617C257.922 251.749 259.081 251.879 260.238 252.006C261.395 252.133 262.55 252.257 263.703 252.379C264.857 252.5 266.009 252.618 267.158 252.734C268.308 252.849 269.456 252.962 270.602 253.072L270.502 252.823C269.621 250.598 270.608 237.987 273.462 214.989C283.972 204.356 291.381 196.804 305.635 181.625C306.471 180.692 307.457 179.33 308.227 178.338C307.118 178.275 306.007 178.209 304.893 178.14C303.779 178.072 302.664 178 301.545 177.926C300.427 177.852 299.307 177.775 298.184 177.695C297.061 177.616 295.937 177.533 294.81 177.448C295.14 180.141 285.549 191.187 266.035 210.585C251.115 186.26 245.485 177.043 242.122 171.535C241.964 171.512 241.805 171.489 241.647 171.465C241.489 171.442 241.331 171.419 241.173 171.396C241.015 171.372 240.856 171.349 240.698 171.325C240.54 171.302 240.382 171.278 240.223 171.255L239.864 174.149" fill="#FFFBFE" fill-opacity="0.5"/>
<path d="M16.2687 41.7869C15.8063 43.9678 12.7575 67.4721 7.12225 112.3C6.82017 114.833 6.73715 116.179 6.7669 118.063C6.5031 118.407 6.24677 118.754 5.99798 119.102C5.7492 119.451 5.50798 119.802 5.27435 120.154C5.04073 120.506 4.81473 120.861 4.59637 121.217C4.37801 121.573 4.16733 121.931 3.96436 122.291L4.07441 121.739C4.53202 119.369 6.31787 105.798 9.43195 81.0258C5.65982 95.3941 4.52138 99.7305 2.85059 112.939L3.56238 107.278C6.05642 88.5123 10.7972 70.1684 13.1593 51.378C13.4851 48.676 13.6091 47.1495 13.6697 45.0961C13.8728 44.7347 14.0835 44.3752 14.302 44.0176C14.5204 43.66 14.7465 43.3043 14.9802 42.9505C15.2139 42.5968 15.4553 42.2449 15.7041 41.895C15.953 41.5451 16.2094 41.1972 16.4733 40.8512C16.4119 41.1319 16.3282 41.5058 16.2686 41.7869" fill="#FFFBFE"/>
<path d="M45.0758 20.4605C44.9048 20.5362 44.7343 20.612 44.5644 20.6881C44.3945 20.7641 44.2251 20.8404 44.0563 20.9168C43.8875 20.9932 43.7193 21.0698 43.5516 21.1467C43.3839 21.2235 43.2168 21.3005 43.0502 21.3777C37.3089 34.9365 33.3182 44.549 26.3239 63.6695C21.1085 40.3234 21.4687 38.4294 22.1862 34.6558C21.8328 34.9771 21.4865 35.3004 21.1473 35.6256C20.8081 35.9509 20.4762 36.2782 20.1514 36.6074C19.8267 36.9367 19.5092 37.2679 19.1989 37.6011C18.8887 37.9343 18.5858 38.2695 18.2902 38.6067C18.3328 39.4387 18.3742 40.5494 18.4457 41.3792C19.3391 48.9265 20.1106 55.4446 22.8913 69.2986L18.9302 100.822C18.6903 102.578 18.3831 104.547 17.5106 107.599L17.4333 107.871C17.8475 107.568 18.2685 107.267 18.6963 106.969C19.1241 106.67 19.5588 106.373 20.0003 106.078C20.4417 105.784 20.8899 105.491 21.3448 105.201C21.7998 104.91 22.2614 104.622 22.7297 104.335C22.524 102.908 22.3564 101.235 22.7541 97.8861L26.773 65.8969C30.6239 55.5574 35.8979 41.3971 45.0758 20.4605" fill="#FFFBFE" fill-opacity="0.5"/>
<path d="M108.604 4.30014C104.996 4.78837 101.464 5.3181 98.0102 5.88866C94.5572 6.45916 91.1835 7.07047 87.8933 7.72192C84.6035 8.3733 81.3971 9.0648 78.2782 9.79574C75.1597 10.5266 72.1286 11.2969 69.1891 12.1059C69.5839 13.6361 69.9379 15.4044 69.5619 18.6838L61.5972 82.1873C61.2437 84.7841 60.6131 86.9544 59.4886 89.444C62.4297 88.6391 65.4624 87.8728 68.5827 87.1459C71.7033 86.419 74.9116 85.7314 78.2034 85.0838C81.4955 84.4362 84.8712 83.8287 88.3264 83.2619C91.7819 82.695 95.3169 82.1689 98.9273 81.6842L99.3279 78.4841C96.4716 78.8677 93.6625 79.2772 90.9025 79.7123C88.1428 80.1474 85.4323 80.6081 82.773 81.094C80.114 81.5799 77.5061 82.0911 74.9515 82.6271C72.3972 83.1631 69.896 83.724 67.4502 84.3095L71.7688 49.8671C73.2227 49.5181 74.6962 49.1779 76.1887 48.8464C77.6813 48.5149 79.193 48.1921 80.7234 47.8782C82.2539 47.5643 83.803 47.2592 85.3704 46.963C86.9379 46.6668 88.5236 46.3795 90.1272 46.1012L90.5279 42.9032C88.9243 43.1815 87.3386 43.4689 85.7712 43.7652C84.2038 44.0614 82.6547 44.3666 81.1242 44.6806C79.5938 44.9946 78.0821 45.3174 76.5895 45.649C75.097 45.9806 73.6236 46.3209 72.1697 46.67L76.347 13.3551C78.7914 12.7668 81.291 12.2031 83.8438 11.6643C86.3968 11.1255 89.0029 10.6116 91.6603 10.123C94.3178 9.63442 97.0265 9.1711 99.7844 8.73341C102.542 8.29568 105.35 7.88359 108.204 7.49747L108.604 4.30016" fill="#FFFBFE" fill-opacity="0.5"/>
<path d="M168.219 0.169861C167.179 0.182962 166.143 0.198745 165.109 0.217189C164.076 0.235633 163.046 0.256739 162.019 0.280503C160.992 0.304267 159.969 0.330681 158.949 0.359741C157.929 0.3888 156.913 0.420513 155.9 0.454853C156.803 2.66921 157.068 4.7178 156.785 7.3049L149.191 68.0915C132.29 27.2912 124.672 5.35801 126.335 2.29202C126.062 2.31726 125.789 2.34273 125.517 2.36842C125.244 2.39411 124.972 2.42001 124.7 2.44613C124.429 2.47226 124.157 2.49858 123.886 2.52513C123.615 2.55169 123.344 2.57845 123.074 2.60543L123.071 2.60577L123.067 2.60611L123.064 2.60645L123.061 2.60679C122.538 2.659 122.016 2.71202 121.495 2.76584C120.975 2.81966 120.456 2.87429 119.938 2.92971C119.421 2.98513 118.904 3.04136 118.389 3.09839C117.875 3.15541 117.361 3.21323 116.849 3.27185C116.72 3.28663 116.591 3.30146 116.462 3.31635C116.333 3.33123 116.204 3.34616 116.075 3.36114C115.946 3.37613 115.817 3.39116 115.689 3.40624C115.56 3.42132 115.432 3.43646 115.303 3.45165C116.217 5.87068 116.407 6.37407 116.216 8.33033L108.029 73.7396C107.668 76.3445 106.947 78.4642 105.618 80.8273C106.519 80.7216 107.425 80.6184 108.335 80.5177C109.245 80.4169 110.16 80.3187 111.079 80.223C111.997 80.1272 112.92 80.034 113.847 79.9433C114.774 79.8525 115.705 79.7643 116.64 79.6786C115.841 77.5242 115.623 75.5022 115.909 72.9177L123.515 12.1327C131.107 32.0188 140.092 51.3026 147.057 71.4589C147.364 72.3471 148.179 74.7061 146.228 77.8622C146.524 77.8523 146.82 77.8427 147.116 77.8333C147.413 77.824 147.709 77.8148 148.006 77.8059C148.303 77.7969 148.6 77.7882 148.898 77.7797C149.195 77.7712 149.493 77.763 149.791 77.7549C150.368 77.7394 150.945 77.7247 151.524 77.7108C152.103 77.6969 152.683 77.6839 153.265 77.6717C153.846 77.6595 154.428 77.6482 155.011 77.6377C155.594 77.6272 156.179 77.6176 156.764 77.6088C156.913 77.6066 157.062 77.6044 157.211 77.6023C157.36 77.6001 157.508 77.5981 157.658 77.596C157.807 77.594 157.956 77.5921 158.105 77.5902C158.254 77.5883 158.403 77.5864 158.553 77.5846C157.41 75.0038 157.205 74.5387 157.381 72.6708L165.569 7.10215C165.934 4.50492 166.727 2.43173 168.219 0.1699" fill="#FFFBFE" fill-opacity="0.5"/>
<path d="M235.253 2.77458C230.545 2.36531 225.872 2.00436 221.236 1.69107C216.601 1.37778 212.004 1.11216 207.45 0.893533C202.896 0.6749 198.385 0.503257 193.92 0.377931C189.455 0.252605 185.038 0.173587 180.671 0.140198C181.635 2.40469 181.926 4.48047 181.644 7.08113L173.709 70.6658C173.342 73.2642 172.534 75.3314 171.007 77.578C175.375 77.6135 179.795 77.6946 184.261 77.8218C188.727 77.9491 193.241 78.1225 197.797 78.3427C202.352 78.563 206.951 78.8301 211.588 79.1448C216.225 79.4594 220.901 79.8215 225.611 80.2319L226.01 77.0289C222.284 76.7043 218.579 76.4098 214.898 76.1452C211.216 75.8806 207.559 75.6458 203.927 75.4406C200.295 75.2353 196.689 75.0595 193.11 74.9129C189.531 74.7663 185.98 74.6489 182.459 74.5603L186.761 40.0759C188.854 40.1282 190.957 40.1906 193.071 40.2634C195.184 40.3361 197.308 40.4191 199.441 40.5125C201.575 40.6059 203.718 40.7096 205.87 40.8237C208.022 40.9378 210.184 41.0624 212.354 41.1974L212.753 37.996C210.583 37.8609 208.421 37.7364 206.269 37.6223C204.117 37.5083 201.974 37.4046 199.841 37.3112C197.707 37.2179 195.584 37.1349 193.47 37.0622C191.356 36.9895 189.253 36.9271 187.16 36.8749L191.32 3.51947C194.84 3.60663 198.39 3.72272 201.967 3.86805C205.545 4.01338 209.15 4.18798 212.78 4.39215C216.411 4.59632 220.067 4.83008 223.747 5.09374C227.427 5.35741 231.13 5.65101 234.855 5.97484L235.253 2.77456" fill="#FFFBFE" fill-opacity="0.5"/>
<path d="M251.453 41.4483L255.614 7.99013C257.723 8.23238 259.837 8.48414 261.956 8.74549C264.076 9.00683 266.2 9.27775 268.33 9.55829C270.459 9.83883 272.593 10.129 274.732 10.4289C276.87 10.7287 279.013 11.0383 281.16 11.3576C298.353 14.7719 301.631 33.7555 290.121 41.8748C284.823 45.6122 279.344 45.0546 277.004 44.8165C274.857 44.4972 272.713 44.1877 270.574 43.8878C268.435 43.5879 266.301 43.2977 264.171 43.0171C262.041 42.7364 259.917 42.4654 257.797 42.204C255.677 41.9426 253.562 41.6907 251.453 41.4483M288.332 9.19498C287.788 9.10911 287.243 9.02374 286.697 8.93888C286.151 8.85401 285.605 8.76965 285.058 8.68581C284.512 8.60196 283.964 8.51862 283.417 8.4358C282.869 8.35297 282.32 8.27066 281.771 8.18886C278.757 7.7397 275.75 7.30975 272.753 6.89886C269.755 6.48796 266.767 6.09611 263.788 5.72316C260.809 5.3502 257.84 4.99615 254.882 4.66084C251.925 4.32552 248.978 4.00895 246.042 3.71096C245.865 3.69294 245.687 3.67497 245.51 3.65708C245.332 3.63919 245.155 3.62137 244.978 3.60361C244.8 3.58586 244.623 3.56817 244.446 3.55055C244.268 3.53293 244.091 3.51538 243.914 3.49789C245.075 5.90087 245.452 8.05479 245.173 10.7001L237.275 74.1747C236.898 76.8081 236.001 78.8364 234.275 80.9569C235.434 81.0714 236.594 81.1887 237.756 81.3089C238.918 81.4292 240.082 81.5523 241.248 81.6784C242.414 81.8044 243.581 81.9334 244.751 82.0652C245.92 82.1971 247.091 82.3319 248.263 82.4696C247.696 81.0948 246.838 79.0172 247.199 75.6533L251.056 44.6345C251.969 44.7394 252.882 44.846 253.796 44.9544C254.711 45.0628 255.626 45.1729 256.542 45.2849C257.459 45.3969 258.376 45.5106 259.294 45.6262C260.212 45.7417 261.132 45.859 262.052 45.9782C262.442 53.9661 267.317 58.4032 278.095 65.3279C287.304 71.2441 291.188 76.0052 289.861 88.5797C290.691 88.7231 291.52 88.8676 292.347 89.0133C293.174 89.159 294 89.3059 294.824 89.4538C295.649 89.6018 296.471 89.7509 297.292 89.9012C298.114 90.0514 298.933 90.2028 299.752 90.3553C300.434 79.9322 295.091 72.4501 280.041 62.7488C270.231 56.4256 266.035 52.76 265.45 46.4258C266.394 46.5523 267.339 46.6807 268.285 46.8109C269.231 46.9412 270.178 47.0734 271.126 47.2074C272.073 47.3415 273.022 47.4775 273.971 47.6153C274.921 47.7532 275.871 47.893 276.822 48.0346C277.32 48.1089 277.818 48.1835 278.315 48.2586C278.812 48.3336 279.309 48.4091 279.805 48.485C280.302 48.5609 280.798 48.6372 281.293 48.7139C281.788 48.7907 282.283 48.8678 282.778 48.9454C303.368 51.2923 312.63 32.0918 302.893 18.2587C299.469 13.3949 294.57 10.3454 288.332 9.19497" fill="#FFFBFE" fill-opacity="0.5"/>
<path d="M357.719 21.7229C322.471 14.5916 303.782 52.006 320.133 79.6124C331.214 98.3203 355.815 109.619 374.775 96.6218C373.177 93.9533 371.055 90.3897 369.443 87.7306C359.492 109.43 331.732 95.2654 325.587 75.7719C317.081 48.788 334.609 12.2927 363.048 27.1534C372.492 32.0883 373.942 41.2859 374.639 45.7061C376.76 44.161 379.588 42.1031 381.706 40.5544C373.854 27.9354 364.328 23.3487 357.719 21.723" fill="#FFFBFE"/>
<path d="M440.913 52.7737C440.141 52.4137 439.364 52.0546 438.581 51.6967C437.799 51.3387 437.011 50.9818 436.218 50.626C435.425 50.2702 434.626 49.9155 433.823 49.5619C433.02 49.2083 432.211 48.8557 431.397 48.5044C432.239 51.8669 432.121 54.0642 431.929 56.0266L430.449 68.0242C429.373 75.2829 427.801 79.8974 422.584 83.49C413.953 89.4331 403.029 87.9466 394.134 93.0329L400.227 43.6955C400.649 40.9439 401.243 39.3965 402.672 37.3272C401.751 37.0041 400.827 36.6826 399.897 36.3624C398.968 36.0423 398.034 35.7236 397.096 35.4065C396.158 35.0893 395.215 34.7736 394.268 34.4594C393.321 34.1452 392.37 33.8325 391.414 33.5214C392.472 36.8513 392.383 39.0331 392.2 40.9824L384.278 105.104C383.917 107.442 383.38 108.822 382.147 110.573L381.846 110.955C382.802 111.265 383.754 111.577 384.702 111.891C385.649 112.205 386.592 112.52 387.531 112.836C388.47 113.153 389.404 113.471 390.334 113.79C391.264 114.11 392.189 114.431 393.11 114.753C390.121 104.449 398.749 96.5383 398.838 96.4649C407.464 89.353 418.968 90.8341 428.275 85.7578L424.035 120.143C423.682 122.497 423.216 123.808 422.117 125.536L421.852 125.907C422.666 126.258 423.475 126.609 424.279 126.962C425.083 127.315 425.881 127.669 426.675 128.024C427.468 128.379 428.257 128.735 429.04 129.092C429.823 129.449 430.6 129.807 431.373 130.167C430.63 127.246 430.611 125.328 430.822 123.18L438.725 59.0749C439.133 56.3294 439.665 54.7983 440.913 52.7737" fill="#FFFBFE"/>
<path d="M484.465 78.3098C484.314 78.1927 484.162 78.0756 484.01 77.9586C483.857 77.8416 483.704 77.7246 483.551 77.6077C483.397 77.4907 483.243 77.3738 483.089 77.257C482.934 77.1401 482.779 77.0233 482.623 76.9065C477.893 84.0633 473.809 90.244 464.335 103.16C457.466 75.191 454.206 60.6383 454.557 59.5019C453.852 59.1301 453.141 58.7592 452.425 58.3892C451.709 58.0191 450.988 57.65 450.261 57.2818C449.534 56.9136 448.801 56.5464 448.063 56.18C447.325 55.8137 446.581 55.4484 445.833 55.084C446.447 57.6194 446.791 59.0018 446.863 59.2313C451.249 73.6712 454.291 83.9014 459.543 104.169L455.657 135.738C455.297 138.243 454.873 139.646 453.91 141.512L453.797 141.702C454.453 142.079 455.103 142.458 455.748 142.837C456.392 143.217 457.031 143.597 457.663 143.977C458.296 144.358 458.923 144.74 459.544 145.122C460.164 145.504 460.779 145.887 461.388 146.27C460.905 143.523 460.826 141.223 461.123 138.581L465.065 106.555C469.802 100.023 476.289 91.077 484.465 78.3098" fill="#FFFBFE" fill-opacity="0.5"/>
<path d="M511.207 112.896C510.809 111.267 510.281 109.633 509.624 107.995C508.967 106.358 508.182 104.717 507.272 103.075C506.362 101.432 505.327 99.7881 504.17 98.1444C503.014 96.5005 501.736 94.8569 500.34 93.2153C500.451 96.0839 500.383 98.0016 500.07 100.815L492.271 164.272C491.902 167.011 491.541 168.583 490.842 170.5C492.239 172.137 493.518 173.775 494.676 175.414C495.833 177.053 496.869 178.692 497.781 180.329C498.692 181.966 499.478 183.602 500.136 185.234C500.794 186.866 501.324 188.495 501.722 190.118L502.114 186.925C501.799 185.641 501.402 184.353 500.924 183.064C500.446 181.774 499.888 180.482 499.251 179.188C498.613 177.894 497.897 176.599 497.103 175.303C496.309 174.008 495.438 172.711 494.491 171.415L498.719 137.007C499.282 137.778 499.817 138.55 500.326 139.321C500.835 140.093 501.316 140.864 501.771 141.635C502.225 142.406 502.651 143.177 503.05 143.947C503.449 144.718 503.821 145.487 504.164 146.257L504.556 143.064C504.213 142.295 503.842 141.525 503.443 140.754C503.044 139.984 502.617 139.213 502.163 138.442C501.709 137.67 501.227 136.899 500.718 136.128C500.21 135.356 499.674 134.584 499.112 133.813L503.201 100.531C504.147 101.831 505.017 103.131 505.81 104.43C506.603 105.73 507.319 107.029 507.956 108.326C508.592 109.624 509.15 110.92 509.627 112.213C510.104 113.507 510.5 114.798 510.815 116.086L511.207 112.896" fill="#FFFBFE" fill-opacity="0.5"/>
<path d="M508.541 150.755C509.616 141.711 509.871 139.562 510.907 129.584L503.462 190.21C503.139 192.873 502.956 194.5 502.612 197.776C502.618 197.385 502.617 196.994 502.607 196.602C502.598 196.21 502.58 195.818 502.555 195.425C502.529 195.033 502.495 194.64 502.453 194.247C502.412 193.853 502.362 193.459 502.304 193.065C502.64 191.28 505.625 167.457 511.257 121.596C511.508 119.5 511.567 118.731 511.785 115.869C511.841 116.266 511.848 116.323 511.855 116.38C511.863 116.436 511.87 116.493 511.877 116.55C511.904 116.773 511.929 116.996 511.951 117.219C511.973 117.441 511.993 117.664 512.01 117.887C512.027 118.109 512.041 118.332 512.053 118.554C512.065 118.776 512.074 118.998 512.081 119.221C512.092 119.679 512.093 119.794 512.094 119.908C512.094 120.367 512.092 120.481 512.09 120.595C510.945 128.503 510.288 136.471 509.322 144.401L508.541 150.755" fill="#FFFBFE" fill-opacity="0.5"/>
</svg>
